<svg xmlns="http://www.w3.org/2000/svg" width="480pt" height="290pt" viewBox="0 0 480 290" version="1.1" xmlns:xlink="http://www.w3.org/1999/xlink">
  <g id="surface2" transform="matrix(1,0,0,1,0,0)">
    <path style="stroke:none;fill-rule:evenodd;fill:rgb(0.000000%,25.490196%,40.000000%);fill-opacity:1" d="M 285.75 140.550781 C 285.984375 140.148438 286.285156 139.464844 286.648438 138.5 C 286.984375 137.601562 287.285156 136.648438 287.550781 135.648438 C 287.816406 134.550781 287.984375 133.714844 288.050781 133.148438 C 288.117188 132.449219 288.035156 132.285156 287.800781 132.648438 C 287.566406 133.050781 287.300781 133.816406 287 134.949219 C 286.699219 136.015625 286.398438 137.101562 286.101562 138.199219 C 285.832031 139.265625 285.648438 140.035156 285.550781 140.5 C 285.449219 140.964844 285.515625 140.984375 285.75 140.550781 M 285.351562 141.550781 C 284.984375 142.25 284.832031 142.332031 284.898438 141.800781 C 285 141.332031 285.234375 140.398438 285.601562 139 C 285.964844 137.5 286.351562 136.035156 286.75 134.601562 C 287.214844 133 287.632812 131.898438 288 131.300781 C 288.332031 130.765625 288.484375 130.933594 288.449219 131.800781 C 288.417969 132.535156 288.214844 133.582031 287.851562 134.949219 C 287.484375 136.285156 287.082031 137.515625 286.648438 138.648438 C 286.148438 139.917969 285.714844 140.882812 285.351562 141.550781 M 282.550781 145.601562 C 282.285156 145.933594 282 146.265625 281.699219 146.601562 C 282.535156 144.5 283.199219 142.132812 283.699219 139.5 C 283.199219 140.066406 282.648438 140.617188 282.050781 141.148438 C 282.148438 140.785156 282.214844 140.382812 282.25 139.949219 C 282.882812 139.417969 283.332031 138.867188 283.601562 138.300781 C 283.964844 137.667969 284.265625 136.816406 284.5 135.75 C 284.699219 135.515625 284.898438 135.300781 285.101562 135.101562 C 284.601562 139.101562 283.75 142.601562 282.550781 145.601562 M 275.648438 151.648438 C 276.316406 151.148438 276.933594 150.367188 277.5 149.300781 C 278.035156 148.332031 278.433594 147.300781 278.699219 146.199219 C 278.933594 145 278.949219 144.082031 278.75 143.449219 C 278.515625 142.75 278.050781 142.648438 277.351562 143.148438 C 276.648438 143.648438 276.015625 144.566406 275.449219 145.898438 C 274.917969 147.101562 274.550781 148.285156 274.351562 149.449219 C 274.148438 150.550781 274.148438 151.316406 274.351562 151.75 C 274.550781 152.183594 274.984375 152.148438 275.648438 151.648438 M 275.351562 152.648438 C 274.316406 153.417969 273.601562 153.582031 273.199219 153.148438 C 272.800781 152.714844 272.714844 151.785156 272.949219 150.351562 C 273.214844 148.816406 273.714844 147.234375 274.449219 145.601562 C 275.351562 143.734375 276.367188 142.382812 277.5 141.550781 C 278.632812 140.785156 279.382812 140.867188 279.75 141.800781 C 280.082031 142.566406 280.082031 143.734375 279.75 145.300781 C 279.417969 146.734375 278.867188 148.101562 278.101562 149.398438 C 277.265625 150.765625 276.351562 151.851562 275.351562 152.648438 M 245.5 165.101562 C 244.800781 165.199219 244.101562 165.316406 243.398438 165.449219 C 242.5 163.917969 241.515625 162.066406 240.449219 159.898438 C 239.050781 160.101562 237.683594 160.265625 236.351562 160.398438 C 236.117188 160.066406 235.917969 159.734375 235.75 159.398438 C 237.183594 159.265625 238.167969 159 238.699219 158.601562 C 239.367188 158.234375 239.667969 157.582031 239.601562 156.648438 C 240.234375 156.515625 240.882812 156.398438 241.550781 156.300781 C 243.050781 159.898438 244.367188 162.832031 245.5 165.101562 M 223.800781 165.351562 C 223.300781 165.25 222.800781 165.148438 222.300781 165.050781 C 220.601562 163.648438 218.882812 161.898438 217.148438 159.800781 C 216.25 159.667969 215.398438 159.5 214.601562 159.300781 C 214.367188 158.964844 214.117188 158.648438 213.851562 158.351562 C 214.648438 158.550781 215.167969 158.566406 215.398438 158.398438 C 215.667969 158.199219 215.617188 157.714844 215.25 156.949219 C 215.648438 157.015625 216.050781 157.082031 216.449219 157.148438 C 218.949219 160.550781 221.398438 163.285156 223.800781 165.351562 M 214.25 162.25 C 214.785156 162.484375 214.898438 162.398438 214.601562 162 C 214.367188 161.601562 213.851562 161 213.050781 160.199219 C 212.214844 159.332031 211.382812 158.515625 210.550781 157.75 C 209.582031 156.882812 208.851562 156.351562 208.351562 156.148438 C 207.851562 155.984375 207.765625 156.199219 208.101562 156.800781 C 208.433594 157.332031 208.984375 158.015625 209.75 158.851562 C 210.550781 159.648438 211.351562 160.332031 212.148438 160.898438 C 213.015625 161.566406 213.714844 162.015625 214.25 162.25 M 215.101562 162.949219 C 214.300781 162.582031 213.300781 161.964844 212.101562 161.101562 C 211 160.332031 209.949219 159.449219 208.949219 158.449219 C 207.917969 157.351562 207.234375 156.464844 206.898438 155.800781 C 206.464844 155 206.648438 154.734375 207.449219 155 C 208.214844 155.300781 209.300781 156.050781 210.699219 157.25 C 211.933594 158.351562 213.082031 159.449219 214.148438 160.550781 C 215.183594 161.617188 215.816406 162.367188 216.050781 162.800781 C 216.25 163.265625 215.933594 163.316406 215.101562 162.949219 M 287.199219 112.300781 C 287.398438 112.167969 287.449219 111.515625 287.351562 110.351562 C 287.214844 109.285156 286.949219 108.050781 286.550781 106.648438 C 286.082031 105.214844 285.632812 104.015625 285.199219 103.050781 C 284.632812 101.949219 284.214844 101.382812 283.949219 101.351562 C 283.648438 101.316406 283.632812 101.867188 283.898438 103 C 284.101562 104.066406 284.433594 105.367188 284.898438 106.898438 C 285.367188 108.5 285.785156 109.800781 286.148438 110.800781 C 286.617188 111.933594 286.964844 112.433594 287.199219 112.300781 M 287.5 114 C 287.132812 114.234375 286.648438 113.632812 286.050781 112.199219 C 285.484375 110.867188 284.898438 109.148438 284.300781 107.050781 C 283.667969 104.949219 283.234375 103.214844 283 101.851562 C 282.734375 100.382812 282.832031 99.699219 283.300781 99.800781 C 283.765625 99.867188 284.367188 100.617188 285.101562 102.050781 C 285.765625 103.285156 286.351562 104.800781 286.851562 106.601562 C 287.382812 108.398438 287.714844 109.984375 287.851562 111.351562 C 287.949219 112.882812 287.832031 113.765625 287.5 114 M 284.398438 115.199219 C 284.101562 115.332031 283.800781 115.484375 283.5 115.648438 C 282.800781 111.683594 281.785156 107.800781 280.449219 104 C 279.851562 104.066406 279.214844 104.132812 278.550781 104.199219 C 278.316406 103.667969 278.117188 103.117188 277.949219 102.550781 C 278.617188 102.515625 279.035156 102.285156 279.199219 101.851562 C 279.367188 101.382812 279.285156 100.582031 278.949219 99.449219 C 279.214844 99.484375 279.484375 99.5 279.75 99.5 C 281.851562 104.535156 283.398438 109.765625 284.398438 115.199219 M 267.648438 122.148438 C 266.882812 122.449219 266.117188 122.734375 265.351562 123 C 264.316406 117.566406 262.898438 112.214844 261.101562 106.949219 C 259.667969 107.183594 258.183594 107.449219 256.648438 107.75 C 256.382812 107.015625 256.117188 106.265625 255.851562 105.5 C 257.417969 105.234375 258.464844 104.785156 259 104.148438 C 259.566406 103.449219 259.714844 102.316406 259.449219 100.75 C 260.082031 100.683594 260.699219 100.617188 261.300781 100.550781 C 262.667969 103.949219 263.898438 107.464844 265 111.101562 C 266.066406 114.734375 266.949219 118.417969 267.648438 122.148438 M 232.75 132.851562 C 231.683594 133.050781 230.632812 133.25 229.601562 133.449219 C 227.632812 127.714844 226.035156 121.867188 224.800781 115.898438 C 223.132812 116.464844 221.535156 117.015625 220 117.550781 C 219.867188 116.785156 219.714844 116.015625 219.550781 115.25 C 221.148438 114.648438 222.285156 113.917969 222.949219 113.050781 C 223.75 112.082031 224.199219 110.683594 224.300781 108.851562 C 225.035156 108.550781 225.785156 108.285156 226.550781 108.050781 C 227.285156 112.015625 228.148438 116.101562 229.148438 120.300781 C 230.148438 124.5 231.351562 128.683594 232.75 132.851562 M 206.199219 137.25 C 205.699219 137.316406 205.214844 137.382812 204.75 137.449219 C 203.25 133.25 202.082031 128.964844 201.25 124.601562 C 200.515625 124.898438 199.816406 125.183594 199.148438 125.449219 C 199.050781 124.882812 198.949219 124.316406 198.851562 123.75 C 199.515625 123.417969 199.984375 122.949219 200.25 122.351562 C 200.617188 121.648438 200.785156 120.582031 200.75 119.148438 C 201.082031 118.984375 201.417969 118.800781 201.75 118.601562 C 202.550781 124.933594 204.035156 131.148438 206.199219 137.25 M 197.949219 136.648438 C 198.351562 136.617188 198.464844 135.933594 198.300781 134.601562 C 198.167969 133.367188 197.882812 131.882812 197.449219 130.148438 C 197.050781 128.382812 196.632812 126.964844 196.199219 125.898438 C 195.734375 124.699219 195.316406 124.214844 194.949219 124.449219 C 194.617188 124.648438 194.464844 125.417969 194.5 126.75 C 194.535156 127.984375 194.734375 129.382812 195.101562 130.949219 C 195.5 132.550781 195.949219 133.882812 196.449219 134.949219 C 197.050781 136.117188 197.550781 136.683594 197.949219 136.648438 M 198.550781 138.449219 C 197.917969 138.484375 197.199219 137.734375 196.398438 136.199219 C 195.667969 134.867188 195.050781 133.183594 194.550781 131.148438 C 194.082031 129.117188 193.851562 127.332031 193.851562 125.800781 C 193.882812 124.035156 194.167969 122.964844 194.699219 122.601562 C 195.265625 122.199219 195.882812 122.75 196.550781 124.25 C 197.148438 125.714844 197.734375 127.601562 198.300781 129.898438 C 198.867188 132.265625 199.214844 134.25 199.351562 135.851562 C 199.484375 137.550781 199.214844 138.417969 198.550781 138.449219 M 195.449219 138 C 195.285156 138 195.132812 138 195 138 C 193.933594 135 193.101562 131.933594 192.5 128.800781 C 192.300781 128.898438 192.132812 129.015625 192 129.148438 C 191.933594 128.714844 191.867188 128.300781 191.800781 127.898438 C 191.933594 127.765625 192.015625 127.5 192.050781 127.101562 C 192.050781 126.632812 192.015625 125.882812 191.949219 124.851562 C 192.050781 124.785156 192.148438 124.699219 192.25 124.601562 C 192.785156 129.167969 193.851562 133.632812 195.449219 138 M 193.300781 136.550781 C 193.332031 136.582031 193.234375 136.148438 193 135.25 C 192.765625 134.417969 192.5 133.382812 192.199219 132.148438 C 191.867188 130.882812 191.632812 129.832031 191.5 129 C 191.300781 128.132812 191.199219 127.734375 191.199219 127.800781 C 191.199219 127.898438 191.265625 128.417969 191.398438 129.351562 C 191.566406 130.183594 191.785156 131.167969 192.050781 132.300781 C 192.316406 133.433594 192.582031 134.382812 192.851562 135.148438 C 193.117188 136.050781 193.265625 136.515625 193.300781 136.550781 M 193.75 137.851562 C 193.683594 137.75 193.464844 137.132812 193.101562 136 C 192.765625 134.964844 192.433594 133.734375 192.101562 132.300781 C 191.765625 130.867188 191.5 129.617188 191.300781 128.550781 C 191.101562 127.351562 191 126.667969 191 126.5 C 191 126.300781 191.117188 126.785156 191.351562 127.949219 C 191.582031 129.050781 191.898438 130.417969 192.300781 132.050781 C 192.699219 133.75 193.066406 135.132812 193.398438 136.199219 C 193.699219 137.398438 193.816406 137.949219 193.75 137.851562 M 259.449219 80.398438 C 260.285156 80.5 260.632812 80.214844 260.5 79.550781 C 260.367188 79.015625 259.917969 78.367188 259.148438 77.601562 C 258.382812 76.867188 257.550781 76.25 256.648438 75.75 C 255.683594 75.214844 254.800781 74.898438 254 74.800781 C 253.199219 74.699219 252.800781 74.851562 252.800781 75.25 C 252.832031 75.648438 253.183594 76.214844 253.851562 76.949219 C 254.582031 77.714844 255.449219 78.433594 256.449219 79.101562 C 257.550781 79.867188 258.550781 80.300781 259.449219 80.398438 M 260.351562 81.5 C 258.949219 81.367188 257.433594 80.785156 255.800781 79.75 C 254.367188 78.816406 253.183594 77.832031 252.25 76.800781 C 251.382812 75.867188 251.015625 75.167969 251.148438 74.699219 C 251.285156 74.234375 251.984375 74.082031 253.25 74.25 C 254.449219 74.382812 255.734375 74.800781 257.101562 75.5 C 258.398438 76.132812 259.535156 76.917969 260.5 77.851562 C 261.566406 78.851562 262.132812 79.714844 262.199219 80.449219 C 262.300781 81.316406 261.683594 81.667969 260.351562 81.5 M 234.449219 81.851562 C 235.648438 81.582031 236.433594 81.015625 236.800781 80.148438 C 237.101562 79.382812 237.050781 78.582031 236.648438 77.75 C 236.285156 76.984375 235.699219 76.433594 234.898438 76.101562 C 234.066406 75.734375 233.148438 75.648438 232.148438 75.851562 C 231.148438 76.082031 230.417969 76.515625 229.949219 77.148438 C 229.550781 77.785156 229.464844 78.484375 229.699219 79.25 C 229.933594 80.117188 230.433594 80.816406 231.199219 81.351562 C 232.167969 81.949219 233.25 82.117188 234.449219 81.851562 M 234.898438 83.050781 C 232.964844 83.484375 231.285156 83.316406 229.851562 82.550781 C 228.683594 81.882812 227.964844 80.964844 227.699219 79.800781 C 227.464844 78.765625 227.699219 77.851562 228.398438 77.050781 C 229.167969 76.183594 230.316406 75.582031 231.851562 75.25 C 233.417969 74.917969 234.816406 74.964844 236.050781 75.398438 C 237.214844 75.800781 238.082031 76.484375 238.648438 77.449219 C 239.214844 78.550781 239.25 79.601562 238.75 80.601562 C 238.117188 81.832031 236.832031 82.648438 234.898438 83.050781 M 223.148438 86.101562 C 222.382812 86.367188 221.617188 86.667969 220.851562 87 C 220.648438 84.535156 220.566406 82.382812 220.601562 80.550781 C 219.433594 81.015625 218.316406 81.5 217.25 82 C 217.25 81.734375 217.265625 81.484375 217.300781 81.25 C 218.398438 80.785156 219.234375 80.351562 219.800781 79.949219 C 220.398438 79.515625 220.832031 79.035156 221.101562 78.5 C 221.566406 78.300781 222.050781 78.117188 222.550781 77.949219 C 222.550781 80.050781 222.75 82.765625 223.148438 86.101562 M 201.800781 97.75 C 201.367188 98.082031 200.949219 98.417969 200.550781 98.75 C 200.984375 96.050781 201.582031 93.632812 202.351562 91.5 C 201.714844 92.066406 201.101562 92.648438 200.5 93.25 C 200.601562 92.949219 200.714844 92.667969 200.851562 92.398438 C 201.417969 91.800781 201.898438 91.265625 202.300781 90.800781 C 202.734375 90.234375 203.148438 89.617188 203.550781 88.949219 C 203.816406 88.683594 204.101562 88.433594 204.398438 88.199219 C 203.265625 90.765625 202.398438 93.949219 201.800781 97.75 M 195.300781 103.25 C 195.632812 102.816406 196.015625 102.015625 196.449219 100.851562 C 196.851562 99.785156 197.214844 98.734375 197.550781 97.699219 C 197.882812 96.699219 198.066406 96 198.101562 95.601562 C 198.167969 95.199219 198.035156 95.234375 197.699219 95.699219 C 197.332031 96.167969 196.933594 96.867188 196.5 97.800781 C 196.066406 98.699219 195.683594 99.632812 195.351562 100.601562 C 195.050781 101.632812 194.882812 102.417969 194.851562 102.949219 C 194.816406 103.582031 194.964844 103.683594 195.300781 103.25 M 195.050781 104.601562 C 194.515625 105.234375 194.25 105.167969 194.25 104.398438 C 194.25 103.734375 194.464844 102.734375 194.898438 101.398438 C 195.300781 100.101562 195.785156 98.882812 196.351562 97.75 C 196.984375 96.484375 197.566406 95.5 198.101562 94.800781 C 198.632812 94.066406 198.898438 93.898438 198.898438 94.300781 C 198.898438 94.734375 198.699219 95.582031 198.300781 96.851562 C 197.867188 98.25 197.367188 99.667969 196.800781 101.101562 C 196.167969 102.734375 195.582031 103.898438 195.050781 104.601562 M 277.800781 153.300781 C 278.199219 152.867188 278.667969 152.316406 279.199219 151.648438 C 279.699219 151.015625 280.148438 150.398438 280.550781 149.800781 C 281.015625 149.132812 281.285156 148.667969 281.351562 148.398438 C 281.449219 148.101562 281.300781 148.183594 280.898438 148.648438 C 280.464844 149.117188 279.984375 149.785156 279.449219 150.648438 C 278.917969 151.417969 278.449219 152.117188 278.050781 152.75 C 277.648438 153.316406 277.417969 153.667969 277.351562 153.800781 C 277.25 153.898438 277.398438 153.734375 277.800781 153.300781 M 277.300781 153.800781 C 276.699219 154.5 276.417969 154.816406 276.449219 154.75 C 276.449219 154.714844 276.699219 154.316406 277.199219 153.550781 C 277.765625 152.75 278.398438 151.816406 279.101562 150.75 C 279.933594 149.515625 280.667969 148.515625 281.300781 147.75 C 281.933594 147.015625 282.214844 146.832031 282.148438 147.199219 C 282.082031 147.535156 281.75 148.117188 281.148438 148.949219 C 280.617188 149.785156 280 150.601562 279.300781 151.398438 C 278.566406 152.332031 277.898438 153.132812 277.300781 153.800781 M 265.101562 163.199219 C 265.800781 162.832031 266.433594 162.398438 267 161.898438 C 267.566406 161.398438 267.964844 160.917969 268.199219 160.449219 C 268.464844 159.949219 268.484375 159.601562 268.25 159.398438 C 267.949219 159.167969 267.398438 159.265625 266.601562 159.699219 C 265.800781 160.132812 265.101562 160.699219 264.5 161.398438 C 263.964844 162 263.617188 162.535156 263.449219 163 C 263.285156 163.433594 263.332031 163.667969 263.601562 163.699219 C 263.898438 163.765625 264.398438 163.601562 265.101562 163.199219 M 264.851562 163.550781 C 263.785156 164.117188 263 164.417969 262.5 164.449219 C 262 164.449219 261.832031 164.199219 262 163.699219 C 262.167969 163.066406 262.632812 162.332031 263.398438 161.5 C 264.332031 160.5 265.464844 159.648438 266.800781 158.949219 C 268.101562 158.25 268.984375 158.035156 269.449219 158.300781 C 269.851562 158.535156 269.851562 159 269.449219 159.699219 C 269.117188 160.332031 268.550781 160.984375 267.75 161.648438 C 266.882812 162.351562 265.917969 162.984375 264.851562 163.550781 M 257.898438 166.601562 C 257.367188 166.800781 256.832031 166.984375 256.300781 167.148438 C 256.367188 166.648438 256.367188 165.933594 256.300781 165 C 255.234375 165.332031 254.167969 165.648438 253.101562 165.949219 C 253.066406 165.816406 253.015625 165.683594 252.949219 165.550781 C 254.117188 165.214844 254.949219 164.898438 255.449219 164.601562 C 256.050781 164.265625 256.464844 163.851562 256.699219 163.351562 C 257.199219 163.183594 257.683594 163 258.148438 162.800781 C 258.214844 164.535156 258.132812 165.800781 257.898438 166.601562 M 246.699219 169.300781 C 247.535156 169.167969 248.117188 168.984375 248.449219 168.75 C 248.785156 168.484375 248.867188 168.199219 248.699219 167.898438 C 248.5 167.535156 248.066406 167.25 247.398438 167.050781 C 246.632812 166.785156 245.765625 166.734375 244.800781 166.898438 C 243.832031 167.035156 243.199219 167.300781 242.898438 167.699219 C 242.667969 168.066406 242.714844 168.417969 243.050781 168.75 C 243.351562 169.050781 243.816406 169.25 244.449219 169.351562 C 245.148438 169.449219 245.898438 169.433594 246.699219 169.300781 M 246.949219 169.449219 C 245.683594 169.648438 244.550781 169.699219 243.550781 169.601562 C 242.617188 169.5 241.917969 169.265625 241.449219 168.898438 C 240.949219 168.464844 240.917969 168 241.351562 167.5 C 241.816406 166.933594 242.851562 166.535156 244.449219 166.300781 C 246.015625 166.066406 247.367188 166.117188 248.5 166.449219 C 249.5 166.714844 250.101562 167.082031 250.300781 167.550781 C 250.5 167.949219 250.316406 168.316406 249.75 168.648438 C 249.148438 169.015625 248.214844 169.285156 246.949219 169.449219 M 239.398438 170.050781 C 238.867188 170.050781 238.351562 170.035156 237.851562 170 C 236.917969 169.699219 235.933594 169.148438 234.898438 168.351562 C 233.898438 168.316406 232.917969 168.265625 231.949219 168.199219 C 231.75 168.066406 231.566406 167.933594 231.398438 167.800781 C 232.398438 167.867188 233.082031 167.851562 233.449219 167.75 C 233.851562 167.648438 234 167.433594 233.898438 167.101562 C 234.367188 167.101562 234.832031 167.101562 235.300781 167.101562 C 236.765625 168.566406 238.132812 169.550781 239.398438 170.050781 M 229.101562 168.949219 C 229.765625 169.117188 230.082031 169.148438 230.050781 169.050781 C 230.050781 168.949219 229.765625 168.75 229.199219 168.449219 C 228.566406 168.148438 227.851562 167.816406 227.050781 167.449219 C 226.082031 167.015625 225.25 166.734375 224.550781 166.601562 C 223.816406 166.464844 223.515625 166.515625 223.648438 166.75 C 223.785156 166.949219 224.183594 167.214844 224.851562 167.550781 C 225.484375 167.882812 226.167969 168.167969 226.898438 168.398438 C 227.734375 168.632812 228.464844 168.816406 229.101562 168.949219 M 229.699219 169.148438 C 228.734375 168.949219 227.683594 168.683594 226.550781 168.351562 C 225.484375 168.015625 224.535156 167.648438 223.699219 167.25 C 222.800781 166.816406 222.316406 166.464844 222.25 166.199219 C 222.117188 165.867188 222.617188 165.816406 223.75 166.050781 C 224.917969 166.285156 226.183594 166.683594 227.550781 167.25 C 228.785156 167.75 229.765625 168.214844 230.5 168.648438 C 231.234375 169.050781 231.550781 169.285156 231.449219 169.351562 C 231.316406 169.417969 230.734375 169.351562 229.699219 169.148438 M 288.75 128.351562 C 288.617188 128.582031 288.484375 128.800781 288.351562 129 C 288.617188 126.101562 288.632812 123.066406 288.398438 119.898438 C 288.167969 120.199219 287.882812 120.484375 287.550781 120.75 C 287.515625 120.285156 287.484375 119.816406 287.449219 119.351562 C 287.75 119.050781 287.949219 118.667969 288.050781 118.199219 C 288.148438 117.699219 288.167969 116.898438 288.101562 115.800781 C 288.199219 115.734375 288.300781 115.648438 288.398438 115.550781 C 289 120.015625 289.117188 124.285156 288.75 128.351562 M 284.75 132.25 C 285.183594 131.851562 285.535156 130.964844 285.800781 129.601562 C 286.035156 128.367188 286.132812 126.984375 286.101562 125.449219 C 286.066406 123.816406 285.898438 122.515625 285.601562 121.550781 C 285.234375 120.417969 284.832031 120 284.398438 120.300781 C 283.964844 120.566406 283.667969 121.464844 283.5 123 C 283.367188 124.398438 283.332031 125.949219 283.398438 127.648438 C 283.433594 129.351562 283.550781 130.632812 283.75 131.5 C 284.015625 132.398438 284.351562 132.648438 284.75 132.25 M 284.648438 133.898438 C 283.984375 134.566406 283.449219 134.351562 283.050781 133.25 C 282.683594 132.183594 282.484375 130.550781 282.449219 128.351562 C 282.351562 126.082031 282.433594 124 282.699219 122.101562 C 282.964844 120 283.449219 118.75 284.148438 118.351562 C 284.816406 117.984375 285.417969 118.515625 285.949219 119.949219 C 286.417969 121.214844 286.683594 122.851562 286.75 124.851562 C 286.816406 126.851562 286.648438 128.632812 286.25 130.199219 C 285.851562 132 285.316406 133.234375 284.648438 133.898438 M 279.601562 137.800781 C 279.167969 138.132812 278.699219 138.464844 278.199219 138.800781 C 278.433594 135.234375 278.382812 131.382812 278.050781 127.25 C 277.183594 127.75 276.265625 128.25 275.300781 128.75 C 275.265625 128.148438 275.214844 127.535156 275.148438 126.898438 C 276.148438 126.398438 276.816406 125.800781 277.148438 125.101562 C 277.617188 124.332031 277.832031 123.199219 277.800781 121.699219 C 278.199219 121.535156 278.566406 121.351562 278.898438 121.148438 C 279.734375 127.183594 279.964844 132.734375 279.601562 137.800781 M 267.949219 143.550781 C 268.984375 143.050781 269.785156 141.984375 270.351562 140.351562 C 270.851562 138.851562 271.050781 137.167969 270.949219 135.300781 C 270.785156 133.300781 270.382812 131.699219 269.75 130.5 C 268.949219 129.101562 267.984375 128.648438 266.851562 129.148438 C 265.714844 129.617188 264.917969 130.867188 264.449219 132.898438 C 263.984375 134.699219 263.851562 136.601562 264.050781 138.601562 C 264.214844 140.535156 264.632812 141.964844 265.300781 142.898438 C 266.035156 143.867188 266.917969 144.082031 267.949219 143.550781 M 268 145.351562 C 266.367188 146.214844 264.984375 146.066406 263.851562 144.898438 C 262.785156 143.800781 262.117188 142.015625 261.851562 139.550781 C 261.550781 136.882812 261.785156 134.332031 262.550781 131.898438 C 263.382812 129.132812 264.699219 127.367188 266.5 126.601562 C 268.234375 125.898438 269.699219 126.449219 270.898438 128.25 C 271.933594 129.785156 272.515625 131.832031 272.648438 134.398438 C 272.785156 136.832031 272.464844 139.015625 271.699219 140.949219 C 270.832031 143.082031 269.601562 144.550781 268 145.351562 M 238 153.25 C 239.332031 153.050781 240.167969 152.265625 240.5 150.898438 C 240.832031 149.632812 240.683594 148.117188 240.050781 146.351562 C 239.351562 144.417969 238.367188 142.816406 237.101562 141.550781 C 235.566406 140.082031 234.050781 139.464844 232.550781 139.699219 C 231.082031 139.964844 230.265625 140.964844 230.101562 142.699219 C 229.898438 144.234375 230.234375 145.933594 231.101562 147.800781 C 231.867188 149.566406 232.851562 150.949219 234.050781 151.949219 C 235.351562 153.015625 236.667969 153.449219 238 153.25 M 238.699219 154.851562 C 236.699219 155.148438 234.765625 154.632812 232.898438 153.300781 C 231.132812 152.066406 229.734375 150.316406 228.699219 148.050781 C 227.566406 145.617188 227.183594 143.398438 227.550781 141.398438 C 227.917969 139 229.265625 137.582031 231.601562 137.148438 C 234.035156 136.75 236.367188 137.535156 238.601562 139.5 C 240.566406 141.167969 241.933594 143.25 242.699219 145.75 C 243.464844 148.082031 243.515625 150.082031 242.851562 151.75 C 242.148438 153.484375 240.765625 154.515625 238.699219 154.851562 M 226.949219 155.550781 C 226.183594 155.582031 225.433594 155.601562 224.699219 155.601562 C 222.832031 152.433594 220.949219 148.867188 219.050781 144.898438 C 217.785156 145 216.566406 145.066406 215.398438 145.101562 C 215.132812 144.535156 214.867188 143.949219 214.601562 143.351562 C 215.800781 143.285156 216.601562 142.984375 217 142.449219 C 217.5 141.882812 217.601562 140.867188 217.300781 139.398438 C 217.867188 139.332031 218.449219 139.25 219.050781 139.148438 C 221.582031 145.515625 224.214844 150.984375 226.949219 155.550781 M 213.101562 153.898438 C 213.867188 153.964844 214.167969 153.5 214 152.5 C 213.832031 151.5 213.332031 150.234375 212.5 148.699219 C 211.632812 147 210.714844 145.550781 209.75 144.351562 C 208.648438 143.015625 207.734375 142.351562 207 142.351562 C 206.300781 142.382812 206.050781 143.050781 206.25 144.351562 C 206.417969 145.484375 206.917969 146.816406 207.75 148.351562 C 208.550781 149.851562 209.417969 151.101562 210.351562 152.101562 C 211.417969 153.199219 212.332031 153.800781 213.101562 153.898438 M 214.050781 155.300781 C 212.882812 155.167969 211.566406 154.382812 210.101562 152.949219 C 208.765625 151.714844 207.582031 150.148438 206.550781 148.25 C 205.515625 146.25 204.933594 144.515625 204.800781 143.050781 C 204.601562 141.351562 205.066406 140.449219 206.199219 140.351562 C 207.332031 140.316406 208.667969 141.199219 210.199219 143 C 211.632812 144.632812 212.917969 146.535156 214.050781 148.699219 C 215.183594 150.800781 215.785156 152.449219 215.851562 153.648438 C 215.917969 154.949219 215.316406 155.5 214.050781 155.300781 M 207.601562 153.699219 C 207.234375 153.601562 206.867188 153.484375 206.5 153.351562 C 204.699219 150.75 203.035156 147.867188 201.5 144.699219 C 200.964844 144.632812 200.484375 144.550781 200.050781 144.449219 C 199.816406 144.015625 199.601562 143.566406 199.398438 143.101562 C 199.867188 143.199219 200.148438 143.082031 200.25 142.75 C 200.316406 142.382812 200.199219 141.667969 199.898438 140.601562 C 200.132812 140.601562 200.367188 140.601562 200.601562 140.601562 C 202.601562 145.5 204.933594 149.867188 207.601562 153.699219 M 201.300781 150.351562 C 201.566406 150.550781 201.515625 150.265625 201.148438 149.5 C 200.816406 148.800781 200.316406 147.832031 199.648438 146.601562 C 198.949219 145.367188 198.332031 144.265625 197.800781 143.300781 C 197.167969 142.234375 196.734375 141.667969 196.5 141.601562 C 196.300781 141.535156 196.367188 141.949219 196.699219 142.851562 C 196.964844 143.648438 197.417969 144.632812 198.050781 145.800781 C 198.683594 146.933594 199.285156 147.898438 199.851562 148.699219 C 200.515625 149.632812 201 150.183594 201.300781 150.351562 M 202.101562 151.5 C 201.632812 151.199219 200.964844 150.464844 200.101562 149.300781 C 199.300781 148.199219 198.5 146.949219 197.699219 145.550781 C 196.933594 144.050781 196.367188 142.800781 196 141.800781 C 195.632812 140.601562 195.601562 140.050781 195.898438 140.148438 C 196.265625 140.214844 196.867188 140.964844 197.699219 142.398438 C 198.5 143.699219 199.351562 145.183594 200.25 146.851562 C 201.148438 148.484375 201.800781 149.734375 202.199219 150.601562 C 202.601562 151.535156 202.566406 151.832031 202.101562 151.5 M 283.101562 97.851562 C 282.933594 97.785156 282.75 97.734375 282.550781 97.699219 C 281.183594 94.832031 279.667969 92.167969 278 89.699219 C 277.601562 89.5 277.167969 89.300781 276.699219 89.101562 C 276.464844 88.734375 276.234375 88.382812 276 88.050781 C 276.464844 88.285156 276.714844 88.332031 276.75 88.199219 C 276.785156 88.066406 276.582031 87.683594 276.148438 87.050781 C 276.351562 87.148438 276.535156 87.265625 276.699219 87.398438 C 279.101562 90.433594 281.234375 93.917969 283.101562 97.851562 M 277.148438 95.601562 C 277.683594 95.667969 277.816406 95.167969 277.550781 94.101562 C 277.285156 93.167969 276.765625 92.050781 276 90.75 C 275.199219 89.484375 274.382812 88.417969 273.550781 87.550781 C 272.617188 86.582031 271.867188 86.015625 271.300781 85.851562 C 270.699219 85.683594 270.535156 86 270.800781 86.800781 C 271.066406 87.601562 271.601562 88.667969 272.398438 90 C 273.265625 91.398438 274.101562 92.632812 274.898438 93.699219 C 275.867188 94.898438 276.617188 95.535156 277.148438 95.601562 M 278 97.300781 C 277.132812 97.234375 276.035156 96.398438 274.699219 94.800781 C 273.464844 93.332031 272.300781 91.667969 271.199219 89.800781 C 270.101562 88.035156 269.449219 86.667969 269.25 85.699219 C 269.015625 84.699219 269.382812 84.332031 270.351562 84.601562 C 271.25 84.867188 272.351562 85.632812 273.648438 86.898438 C 274.785156 88.066406 275.851562 89.433594 276.851562 91 C 277.851562 92.699219 278.484375 94.132812 278.75 95.300781 C 279.050781 96.699219 278.800781 97.367188 278 97.300781 M 271.648438 96.648438 C 271.117188 96.648438 270.566406 96.667969 270 96.699219 C 268.265625 92.867188 266.398438 89.449219 264.398438 86.449219 C 263.367188 86.351562 262.300781 86.265625 261.199219 86.199219 C 260.933594 85.800781 260.683594 85.398438 260.449219 85 C 261.550781 85.035156 262.25 84.933594 262.550781 84.699219 C 262.882812 84.433594 262.882812 83.917969 262.550781 83.148438 C 262.949219 83.183594 263.367188 83.234375 263.800781 83.300781 C 266.601562 87.035156 269.214844 91.484375 271.648438 96.648438 M 257.25 95.800781 C 258.449219 95.667969 259.035156 94.882812 259 93.449219 C 259.035156 92.183594 258.601562 90.765625 257.699219 89.199219 C 256.898438 87.632812 255.917969 86.398438 254.75 85.5 C 253.515625 84.464844 252.316406 83.984375 251.148438 84.050781 C 250.015625 84.117188 249.382812 84.683594 249.25 85.75 C 249.117188 86.816406 249.433594 88.117188 250.199219 89.648438 C 251 91.316406 252.015625 92.734375 253.25 93.898438 C 254.683594 95.265625 256.015625 95.898438 257.25 95.800781 M 258.199219 97.949219 C 256.265625 98.148438 254.25 97.351562 252.148438 95.550781 C 250.351562 93.949219 248.917969 92.066406 247.851562 89.898438 C 246.917969 87.867188 246.648438 86.199219 247.050781 84.898438 C 247.449219 83.5 248.550781 82.765625 250.351562 82.699219 C 252.082031 82.632812 253.832031 83.214844 255.601562 84.449219 C 257.234375 85.648438 258.582031 87.214844 259.648438 89.148438 C 260.816406 91.25 261.332031 93.117188 261.199219 94.75 C 261.066406 96.683594 260.066406 97.75 258.199219 97.949219 M 223.300781 103.351562 C 224.699219 102.816406 225.683594 101.617188 226.25 99.75 C 226.75 98.148438 226.851562 96.464844 226.550781 94.699219 C 226.25 93 225.683594 91.75 224.851562 90.949219 C 223.917969 90.082031 222.851562 89.882812 221.648438 90.351562 C 220.484375 90.816406 219.601562 91.765625 219 93.199219 C 218.433594 94.566406 218.214844 96.117188 218.351562 97.851562 C 218.515625 99.683594 219 101.132812 219.800781 102.199219 C 220.765625 103.464844 221.933594 103.851562 223.300781 103.351562 M 223.699219 105.75 C 221.535156 106.550781 219.734375 106.132812 218.300781 104.5 C 217.066406 103.101562 216.367188 101.199219 216.199219 98.800781 C 216.066406 96.535156 216.433594 94.515625 217.300781 92.75 C 218.234375 90.816406 219.632812 89.5 221.5 88.800781 C 223.367188 88.101562 224.984375 88.25 226.351562 89.25 C 227.683594 90.214844 228.582031 91.765625 229.050781 93.898438 C 229.515625 96.199219 229.351562 98.449219 228.550781 100.648438 C 227.515625 103.183594 225.898438 104.882812 223.699219 105.75 M 211.949219 110.050781 C 211.214844 110.382812 210.515625 110.714844 209.851562 111.050781 C 209.417969 106.582031 209.234375 102.484375 209.300781 98.75 C 208.199219 99.351562 207.148438 99.964844 206.148438 100.601562 C 206.183594 100.101562 206.199219 99.601562 206.199219 99.101562 C 207.234375 98.5 208.015625 97.867188 208.550781 97.199219 C 209.148438 96.5 209.601562 95.566406 209.898438 94.398438 C 210.367188 94.132812 210.851562 93.867188 211.351562 93.601562 C 211.117188 98.300781 211.316406 103.785156 211.949219 110.050781 M 200.25 114.5 C 200.851562 114.101562 201.316406 113.066406 201.648438 111.398438 C 201.949219 109.898438 202.117188 108.285156 202.148438 106.550781 C 202.148438 104.882812 202.015625 103.632812 201.75 102.800781 C 201.417969 101.933594 200.949219 101.75 200.351562 102.25 C 199.75 102.714844 199.234375 103.667969 198.800781 105.101562 C 198.433594 106.398438 198.234375 107.832031 198.199219 109.398438 C 198.199219 111.066406 198.367188 112.382812 198.699219 113.351562 C 199.101562 114.515625 199.617188 114.898438 200.25 114.5 M 200.398438 116.601562 C 199.433594 117.132812 198.632812 116.683594 198 115.25 C 197.464844 113.984375 197.214844 112.285156 197.25 110.148438 C 197.285156 108.117188 197.582031 106.265625 198.148438 104.601562 C 198.785156 102.734375 199.566406 101.417969 200.5 100.648438 C 201.464844 99.882812 202.214844 100 202.75 101 C 203.214844 101.964844 203.449219 103.535156 203.449219 105.699219 C 203.449219 108.035156 203.214844 110.214844 202.75 112.25 C 202.148438 114.515625 201.367188 115.964844 200.398438 116.601562 M 195.5 119.199219 C 195.234375 119.398438 194.964844 119.601562 194.699219 119.800781 C 194.398438 116.265625 194.367188 112.898438 194.601562 109.699219 C 194.234375 110.167969 193.867188 110.601562 193.5 111 C 193.535156 110.601562 193.566406 110.183594 193.601562 109.75 C 193.964844 109.316406 194.265625 108.816406 194.5 108.25 C 194.734375 107.648438 194.964844 106.832031 195.199219 105.800781 C 195.398438 105.566406 195.601562 105.351562 195.800781 105.148438 C 195.167969 109.449219 195.066406 114.132812 195.5 119.199219 M 191.648438 121.398438 C 191.785156 121.199219 191.882812 120.484375 191.949219 119.25 C 192.015625 118.148438 192.066406 116.917969 192.101562 115.550781 C 192.132812 114.183594 192.148438 113.148438 192.148438 112.449219 C 192.117188 111.648438 192.035156 111.433594 191.898438 111.800781 C 191.734375 112.101562 191.566406 112.800781 191.398438 113.898438 C 191.265625 114.933594 191.183594 116.066406 191.148438 117.300781 C 191.117188 118.566406 191.148438 119.582031 191.25 120.351562 C 191.351562 121.285156 191.484375 121.632812 191.648438 121.398438 M 191.75 122.949219 C 191.515625 123.25 191.316406 122.816406 191.148438 121.648438 C 190.984375 120.683594 190.917969 119.382812 190.949219 117.75 C 191.015625 116.148438 191.148438 114.699219 191.351562 113.398438 C 191.582031 111.964844 191.816406 110.984375 192.050781 110.449219 C 192.316406 109.917969 192.464844 110.101562 192.5 111 C 192.535156 111.898438 192.535156 113.234375 192.5 115 C 192.464844 116.832031 192.398438 118.5 192.300781 120 C 192.199219 121.667969 192.015625 122.648438 191.75 122.949219 M 269.699219 81.050781 C 269.964844 81.316406 269.917969 81.398438 269.550781 81.300781 C 269.183594 81.199219 268.683594 81 268.050781 80.699219 C 267.382812 80.398438 266.765625 80.101562 266.199219 79.800781 C 265.566406 79.464844 265.101562 79.167969 264.800781 78.898438 C 264.535156 78.601562 264.550781 78.449219 264.851562 78.449219 C 265.117188 78.484375 265.582031 78.632812 266.25 78.898438 C 266.949219 79.199219 267.617188 79.550781 268.25 79.949219 C 268.949219 80.417969 269.433594 80.785156 269.699219 81.050781 M 270.5 81.550781 C 270.066406 81.082031 269.351562 80.515625 268.351562 79.851562 C 267.484375 79.285156 266.601562 78.800781 265.699219 78.398438 C 264.800781 78.035156 264.199219 77.882812 263.898438 77.949219 C 263.566406 77.984375 263.632812 78.214844 264.101562 78.648438 C 264.535156 79.082031 265.183594 79.535156 266.050781 80 C 266.851562 80.433594 267.648438 80.832031 268.449219 81.199219 C 269.316406 81.601562 269.964844 81.867188 270.398438 82 C 270.867188 82.132812 270.898438 81.984375 270.5 81.550781 M 242.601562 72.699219 C 243.464844 72.699219 243.964844 72.566406 244.101562 72.300781 C 244.199219 72.066406 244.035156 71.832031 243.601562 71.601562 C 243.199219 71.398438 242.667969 71.25 242 71.148438 C 241.265625 71.050781 240.535156 71.015625 239.800781 71.050781 C 239.035156 71.050781 238.535156 71.117188 238.300781 71.25 C 238.101562 71.382812 238.148438 71.550781 238.449219 71.75 C 238.785156 71.984375 239.300781 72.199219 240 72.398438 C 240.832031 72.632812 241.699219 72.734375 242.601562 72.699219 M 243.101562 73.148438 C 241.667969 73.214844 240.332031 73.082031 239.101562 72.75 C 238.066406 72.515625 237.351562 72.234375 236.949219 71.898438 C 236.582031 71.632812 236.617188 71.417969 237.050781 71.25 C 237.484375 71.082031 238.285156 70.984375 239.449219 70.949219 C 240.582031 70.917969 241.667969 70.949219 242.699219 71.050781 C 243.699219 71.183594 244.484375 71.382812 245.050781 71.648438 C 245.683594 71.949219 245.882812 72.25 245.648438 72.550781 C 245.351562 72.917969 244.5 73.117188 243.101562 73.148438 M 234 74 C 233.367188 74.101562 232.714844 74.214844 232.050781 74.351562 C 231.648438 73.484375 231.285156 72.816406 230.949219 72.351562 C 229.984375 72.550781 229.035156 72.765625 228.101562 73 C 228.066406 72.964844 228.050781 72.917969 228.050781 72.851562 C 228.984375 72.617188 229.667969 72.433594 230.101562 72.300781 C 230.566406 72.167969 230.882812 72.050781 231.050781 71.949219 C 231.417969 71.851562 231.800781 71.765625 232.199219 71.699219 C 232.734375 72.035156 233.332031 72.800781 234 74 M 221.148438 77.199219 C 222.015625 76.832031 222.714844 76.398438 223.25 75.898438 C 223.683594 75.464844 223.917969 75.082031 223.949219 74.75 C 223.984375 74.484375 223.800781 74.351562 223.398438 74.351562 C 223 74.351562 222.433594 74.5 221.699219 74.800781 C 221 75.066406 220.382812 75.382812 219.851562 75.75 C 219.316406 76.082031 219 76.417969 218.898438 76.75 C 218.734375 77.117188 218.832031 77.367188 219.199219 77.5 C 219.601562 77.632812 220.25 77.535156 221.148438 77.199219 M 221.101562 77.75 C 219.699219 78.285156 218.667969 78.484375 218 78.351562 C 217.433594 78.214844 217.265625 77.898438 217.5 77.398438 C 217.699219 76.964844 218.183594 76.515625 218.949219 76.050781 C 219.75 75.515625 220.714844 75.035156 221.851562 74.601562 C 222.949219 74.167969 223.832031 73.917969 224.5 73.851562 C 225.132812 73.785156 225.449219 73.933594 225.449219 74.300781 C 225.484375 74.699219 225.148438 75.199219 224.449219 75.800781 C 223.648438 76.535156 222.535156 77.183594 221.101562 77.75 M 213.199219 81.351562 C 212.667969 81.648438 212.148438 81.949219 211.648438 82.25 C 212.148438 80.984375 212.714844 79.949219 213.351562 79.148438 C 212.617188 79.617188 211.882812 80.101562 211.148438 80.601562 C 211.25 80.464844 211.351562 80.367188 211.449219 80.300781 C 212.148438 79.800781 212.714844 79.398438 213.148438 79.101562 C 213.648438 78.800781 214.082031 78.515625 214.449219 78.25 C 214.75 78.050781 215.066406 77.867188 215.398438 77.699219 C 214.5 78.433594 213.765625 79.648438 213.199219 81.351562 "/>
    <path style="stroke:none;fill-rule:evenodd;fill:rgb(0.000000%,73.725490%,87.450980%);fill-opacity:1" d="M 268.449219 157 C 267.882812 157.300781 267.300781 157.601562 266.699219 157.898438 C 267.066406 156.035156 267.316406 153.816406 267.449219 151.25 C 266.285156 151.851562 265.101562 152.433594 263.898438 153 C 263.898438 152.601562 263.898438 152.199219 263.898438 151.800781 C 265.132812 151.234375 266.050781 150.648438 266.648438 150.050781 C 267.316406 149.382812 267.800781 148.484375 268.101562 147.351562 C 268.601562 147.082031 269.101562 146.816406 269.601562 146.550781 C 269.5 150.683594 269.117188 154.167969 268.449219 157 M 251 80.851562 C 250.265625 80.851562 249.515625 80.867188 248.75 80.898438 C 247.351562 78.699219 246.015625 76.851562 244.75 75.351562 C 243.582031 75.382812 242.417969 75.449219 241.25 75.550781 C 241.082031 75.351562 240.933594 75.167969 240.800781 75 C 241.964844 74.898438 242.785156 74.765625 243.25 74.601562 C 243.714844 74.398438 243.917969 74.117188 243.851562 73.75 C 244.316406 73.75 244.785156 73.75 245.25 73.75 C 247.015625 75.449219 248.933594 77.816406 251 80.851562 M 256.898438 149.75 C 256.035156 150.050781 255.148438 150.351562 254.25 150.648438 C 253.617188 147.148438 252.867188 143.183594 252 138.75 C 250.234375 139.316406 248.449219 139.867188 246.648438 140.398438 C 246.449219 139.734375 246.265625 139.066406 246.101562 138.398438 C 248 137.867188 249.332031 137.183594 250.101562 136.351562 C 250.964844 135.449219 251.449219 134.101562 251.550781 132.300781 C 252.351562 132.035156 253.132812 131.765625 253.898438 131.5 C 255.167969 138.535156 256.167969 144.617188 256.898438 149.75 "/>
    <path style="stroke:none;fill-rule:evenodd;fill:rgb(58.823529%,73.725490%,20.000000%);fill-opacity:1" d="M 231.300781 165.601562 C 232.234375 165.601562 232.75 165.332031 232.851562 164.800781 C 232.949219 164.265625 232.683594 163.582031 232.050781 162.75 C 231.382812 161.785156 230.515625 160.949219 229.449219 160.25 C 228.285156 159.417969 227.167969 159 226.101562 159 C 225.101562 158.964844 224.617188 159.367188 224.648438 160.199219 C 224.683594 160.898438 225.082031 161.699219 225.851562 162.601562 C 226.550781 163.464844 227.382812 164.167969 228.351562 164.699219 C 229.382812 165.265625 230.367188 165.566406 231.300781 165.601562 M 232 166.300781 C 230.601562 166.265625 229.167969 165.882812 227.699219 165.148438 C 226.332031 164.484375 225.167969 163.601562 224.199219 162.5 C 223.167969 161.265625 222.683594 160.199219 222.75 159.300781 C 222.785156 158.199219 223.601562 157.648438 225.199219 157.648438 C 226.867188 157.683594 228.582031 158.265625 230.351562 159.398438 C 231.917969 160.332031 233.117188 161.417969 233.949219 162.648438 C 234.75 163.785156 234.984375 164.683594 234.648438 165.351562 C 234.316406 166.015625 233.433594 166.332031 232 166.300781 M 214 134.199219 C 215.035156 134 215.601562 132.949219 215.699219 131.050781 C 215.765625 129.25 215.515625 127.148438 214.949219 124.75 C 214.351562 122.285156 213.632812 120.351562 212.800781 118.949219 C 211.867188 117.382812 210.898438 116.816406 209.898438 117.25 C 208.933594 117.683594 208.332031 118.851562 208.101562 120.75 C 207.933594 122.484375 208.101562 124.449219 208.601562 126.648438 C 209.167969 128.882812 209.917969 130.699219 210.851562 132.101562 C 211.949219 133.699219 213 134.398438 214 134.199219 M 214.898438 136.648438 C 213.265625 136.882812 211.683594 136 210.148438 134 C 208.75 132.265625 207.699219 129.984375 207 127.148438 C 206.367188 124.316406 206.234375 121.800781 206.601562 119.601562 C 207.066406 117.066406 208.050781 115.464844 209.550781 114.800781 C 211.117188 114.101562 212.582031 114.683594 213.949219 116.550781 C 215.25 118.382812 216.285156 120.898438 217.050781 124.101562 C 217.882812 127.367188 218.148438 130.183594 217.851562 132.550781 C 217.582031 135.050781 216.601562 136.417969 214.898438 136.648438 M 248.398438 126.5 C 250.066406 126 251.101562 124.535156 251.5 122.101562 C 251.898438 119.898438 251.699219 117.433594 250.898438 114.699219 C 250.101562 111.933594 248.984375 109.785156 247.550781 108.25 C 245.984375 106.515625 244.367188 105.832031 242.699219 106.199219 C 241.101562 106.566406 240.066406 107.832031 239.601562 110 C 239.199219 112.066406 239.382812 114.515625 240.148438 117.351562 C 240.984375 120.351562 242.117188 122.734375 243.550781 124.5 C 245.117188 126.367188 246.734375 127.035156 248.398438 126.5 M 249.101562 129.449219 C 246.5 130.285156 244.050781 129.566406 241.75 127.300781 C 239.550781 125.167969 237.933594 122.148438 236.898438 118.25 C 235.964844 114.515625 235.917969 111.332031 236.75 108.699219 C 237.582031 105.832031 239.285156 104.117188 241.851562 103.550781 C 244.351562 103.015625 246.734375 103.816406 249 105.949219 C 251.066406 107.917969 252.617188 110.617188 253.648438 114.050781 C 254.683594 117.582031 254.832031 120.75 254.101562 123.550781 C 253.300781 126.683594 251.632812 128.648438 249.101562 129.449219 "/>
    <path style="stroke:none;fill-rule:evenodd;fill:rgb(98.039216%,65.098039%,10.196078%);fill-opacity:1" d="M 255.398438 162 C 256.433594 161.667969 257.214844 161.082031 257.75 160.25 C 258.285156 159.417969 258.515625 158.515625 258.449219 157.550781 C 258.351562 156.484375 257.949219 155.648438 257.25 155.050781 C 256.449219 154.382812 255.433594 154.234375 254.199219 154.601562 C 252.964844 155 252.101562 155.765625 251.601562 156.898438 C 251.132812 157.867188 251.035156 158.851562 251.300781 159.851562 C 251.535156 160.785156 252 161.449219 252.699219 161.851562 C 253.464844 162.285156 254.367188 162.332031 255.398438 162 M 255.550781 162.800781 C 253.949219 163.300781 252.582031 163.316406 251.449219 162.851562 C 250.316406 162.417969 249.566406 161.601562 249.199219 160.398438 C 248.800781 159.101562 248.949219 157.785156 249.648438 156.449219 C 250.484375 154.882812 251.898438 153.785156 253.898438 153.148438 C 255.867188 152.515625 257.464844 152.648438 258.699219 153.550781 C 259.800781 154.316406 260.367188 155.398438 260.398438 156.800781 C 260.433594 158.101562 260.035156 159.285156 259.199219 160.351562 C 258.332031 161.449219 257.117188 162.265625 255.550781 162.800781 M 276 116.949219 C 276.765625 116.683594 277.183594 115.683594 277.25 113.949219 C 277.285156 112.417969 277.015625 110.667969 276.449219 108.699219 C 275.882812 106.667969 275.148438 105.015625 274.25 103.75 C 273.25 102.316406 272.351562 101.648438 271.550781 101.75 C 270.714844 101.816406 270.316406 102.667969 270.351562 104.300781 C 270.382812 105.832031 270.734375 107.683594 271.398438 109.851562 C 272.035156 112.050781 272.75 113.816406 273.550781 115.148438 C 274.382812 116.683594 275.199219 117.285156 276 116.949219 M 276.449219 119.300781 C 275.214844 119.832031 273.984375 119.148438 272.75 117.25 C 271.582031 115.484375 270.566406 113.132812 269.699219 110.199219 C 268.832031 107.300781 268.433594 104.867188 268.5 102.898438 C 268.601562 100.765625 269.332031 99.667969 270.699219 99.601562 C 271.964844 99.5 273.300781 100.367188 274.699219 102.199219 C 275.964844 103.832031 276.964844 105.898438 277.699219 108.398438 C 278.464844 110.964844 278.75 113.234375 278.550781 115.199219 C 278.351562 117.433594 277.648438 118.800781 276.449219 119.300781 M 209.050781 91.75 C 209.917969 91.214844 210.667969 90.351562 211.300781 89.148438 C 211.832031 88.117188 212.183594 87.101562 212.351562 86.101562 C 212.515625 85.167969 212.449219 84.535156 212.148438 84.199219 C 211.816406 83.898438 211.265625 83.984375 210.5 84.449219 C 209.734375 84.917969 209.035156 85.601562 208.398438 86.5 C 207.867188 87.367188 207.464844 88.285156 207.199219 89.25 C 206.964844 90.285156 207 91.066406 207.300781 91.601562 C 207.632812 92.199219 208.214844 92.25 209.050781 91.75 M 208.898438 93.148438 C 207.566406 93.949219 206.632812 93.964844 206.101562 93.199219 C 205.632812 92.566406 205.566406 91.550781 205.898438 90.148438 C 206.234375 88.882812 206.816406 87.683594 207.648438 86.550781 C 208.550781 85.285156 209.582031 84.300781 210.75 83.601562 C 211.917969 82.867188 212.785156 82.667969 213.351562 83 C 213.917969 83.332031 214.132812 84.082031 214 85.25 C 213.800781 86.550781 213.300781 87.933594 212.5 89.398438 C 211.5 91.066406 210.300781 92.316406 208.898438 93.148438 M 244.75 99.25 C 243.714844 99.417969 242.667969 99.617188 241.601562 99.851562 C 240.132812 95.484375 238.785156 91.582031 237.550781 88.148438 C 235.984375 88.484375 234.398438 88.867188 232.800781 89.300781 C 232.699219 88.832031 232.566406 88.382812 232.398438 87.949219 C 234 87.550781 235.117188 87.101562 235.75 86.601562 C 236.484375 86.066406 236.867188 85.316406 236.898438 84.351562 C 237.535156 84.25 238.167969 84.132812 238.800781 84 C 240.566406 88.167969 242.550781 93.25 244.75 99.25 "/>
  </g>
  <g id="surface4">
    <text style="fill:rgb(0,65,102)" font-family="Palermo" font-size="50" transform="matrix(1,0,0,1,127.75,218.8)" xml:space="preserve"><![CDATA[LaMaStEx]]></text>
  </g>
</svg>